<svg width="21" height="20" viewBox="0 0 21 20" fill="none" xmlns="http://www.w3.org/2000/svg">
<path fill-rule="evenodd" clip-rule="evenodd" d="M13.9968 16.0038C13.8108 16.1895 13.5587 16.2939 13.2959 16.2939C13.033 16.2939 12.7809 16.1895 12.595 16.0038L7.30498 10.7138C7.11924 10.5278 7.01491 10.2757 7.01491 10.0129C7.01491 9.75005 7.11924 9.49795 7.30498 9.31197L12.595 4.02199C12.6858 3.92454 12.7953 3.84638 12.9169 3.79216C13.0386 3.73795 13.17 3.7088 13.3031 3.70645C13.4363 3.7041 13.5686 3.7286 13.6921 3.77849C13.8156 3.82837 13.9278 3.90262 14.022 3.99681C14.1162 4.091 14.1904 4.20319 14.2403 4.3267C14.2902 4.4502 14.3147 4.58249 14.3123 4.71567C14.31 4.84885 14.2808 4.98019 14.2266 5.10186C14.1724 5.22353 14.0943 5.33303 13.9968 5.42383L9.40775 10.0129L13.9968 14.602C14.1826 14.7879 14.2869 15.04 14.2869 15.3029C14.2869 15.5657 14.1826 15.8178 13.9968 16.0038Z" fill="#81818D" style="fill:#81818D;fill:color(display-p3 0.5059 0.5059 0.5529);fill-opacity:1;"/>
</svg>
