<svg width="16" height="18" viewBox="0 0 16 18" fill="none" xmlns="http://www.w3.org/2000/svg">
<path d="M1.19238 4.83333H14.5257M6.19238 8.16667V13.1667M9.52572 8.16667V13.1667M2.02572 4.83333L2.85905 14.8333C2.85905 15.2754 3.03464 15.6993 3.3472 16.0118C3.65977 16.3244 4.08369 16.5 4.52572 16.5H11.1924C11.6344 16.5 12.0583 16.3244 12.3709 16.0118C12.6835 15.6993 12.859 15.2754 12.859 14.8333L13.6924 4.83333M5.35905 4.83333V2.33333C5.35905 2.11232 5.44685 1.90036 5.60313 1.74408C5.75941 1.5878 5.97137 1.5 6.19238 1.5H9.52572C9.74673 1.5 9.95869 1.5878 10.115 1.74408C10.2713 1.90036 10.359 2.11232 10.359 2.33333V4.83333" stroke="#543C52" style="stroke:#543C52;stroke:color(display-p3 0.3294 0.2353 0.3216);stroke-opacity:1;" stroke-width="1.66667" stroke-linecap="round" stroke-linejoin="round"/>
</svg>
