<svg width="21" height="20" viewBox="0 0 21 20" fill="none" xmlns="http://www.w3.org/2000/svg">
<path d="M17.1543 11.0801H11.7456V16.4887C11.7456 16.7756 11.6317 17.0508 11.4288 17.2536C11.2259 17.4565 10.9508 17.5705 10.6639 17.5705C10.377 17.5705 10.1019 17.4565 9.899 17.2536C9.69614 17.0508 9.58217 16.7756 9.58217 16.4887V11.0801H4.17353C3.88663 11.0801 3.61149 10.9661 3.40863 10.7633C3.20576 10.5604 3.0918 10.2853 3.0918 9.99837C3.0918 9.71148 3.20576 9.43634 3.40863 9.23348C3.61149 9.03061 3.88663 8.91664 4.17353 8.91664H9.58217V3.508C9.58217 3.22111 9.69614 2.94596 9.899 2.7431C10.1019 2.54024 10.377 2.42627 10.6639 2.42627C10.9508 2.42627 11.2259 2.54024 11.4288 2.7431C11.6317 2.94596 11.7456 3.22111 11.7456 3.508V8.91664H17.1543C17.4412 8.91664 17.7163 9.03061 17.9192 9.23348C18.122 9.43634 18.236 9.71148 18.236 9.99837C18.236 10.2853 18.122 10.5604 17.9192 10.7633C17.7163 10.9661 17.4412 11.0801 17.1543 11.0801Z" fill="white" style="fill:white;fill-opacity:1;"/>
</svg>
