<svg width="21" height="20" viewBox="0 0 21 20" fill="none" xmlns="http://www.w3.org/2000/svg">
<path d="M10.6641 1.33008C12.9627 1.33264 15.1666 2.2467 16.792 3.87207C18.4174 5.49744 19.3314 7.70138 19.334 10L19.3281 10.3213C19.2727 11.8168 18.8308 13.2726 18.0459 14.5469L17.873 14.8164C16.9799 16.153 15.734 17.2138 14.2764 17.8818L13.9814 18.0098C12.4965 18.6248 10.8719 18.8148 9.28906 18.5605L8.97266 18.5029C7.29088 18.1684 5.7457 17.3434 4.5332 16.1309C3.39644 14.9941 2.60028 13.5649 2.22949 12.0049L2.16113 11.6914C1.84753 10.1148 1.97886 8.48441 2.53711 6.98145L2.6543 6.68262C3.26951 5.19736 4.28464 3.91415 5.58398 2.97461L5.84766 2.79102C7.18416 1.89808 8.74072 1.39533 10.3428 1.33594L10.6641 1.33008ZM13.2764 3.69336C12.029 3.17667 10.6563 3.04128 9.33203 3.30469C8.00789 3.56813 6.79157 4.21819 5.83691 5.17285C4.88225 6.12751 4.23219 7.34383 3.96875 8.66797C3.72182 9.90938 3.82507 11.1935 4.26465 12.377L4.35742 12.6123C4.84187 13.7819 5.64086 14.7924 6.66406 15.5322L6.87109 15.6758C7.92351 16.379 9.14956 16.7755 10.4111 16.8223L10.6641 16.8262C12.474 16.8242 14.2095 16.105 15.4893 14.8252C16.7691 13.5454 17.4883 11.8099 17.4902 10L17.4863 9.74707C17.4427 8.56953 17.0945 7.42323 16.4766 6.41992L16.3398 6.20703C15.6365 5.15462 14.6556 4.31985 13.5078 3.79395L13.2764 3.69336ZM14.0176 11.0078C14.1085 11.0194 14.197 11.0445 14.2803 11.082L14.3623 11.124C14.4682 11.1852 14.5607 11.2669 14.6348 11.3643C14.6903 11.4373 14.7351 11.5178 14.7666 11.6035L14.7939 11.6914C14.8169 11.7805 14.8264 11.8723 14.8223 11.9639L14.8135 12.0547C14.8002 12.1455 14.7735 12.2338 14.7344 12.3164L14.6914 12.3975H14.6904C13.8105 13.9221 12.3413 14.7959 10.6641 14.7959C9.09152 14.7959 7.70391 14.0289 6.80957 12.6758L6.6377 12.3975C6.53586 12.2129 6.50021 11.9999 6.53613 11.7939L6.55664 11.7061C6.6132 11.5023 6.73772 11.3251 6.9082 11.2031L6.9834 11.1543C7.16654 11.0485 7.37974 11.0096 7.58691 11.042L7.6748 11.0596C7.90818 11.1198 8.10876 11.2693 8.2334 11.4756V11.4766C8.55079 12.0256 9.29154 12.9521 10.6641 12.9521C11.865 12.9521 12.582 12.2421 12.9551 11.6973L13.0947 11.4766V11.4756C13.1392 11.3952 13.1959 11.3223 13.2617 11.2588L13.3301 11.1982C13.4021 11.1414 13.4822 11.0956 13.5674 11.0625L13.6543 11.0342C13.7426 11.0097 13.8345 10.9976 13.9258 11L14.0176 11.0078ZM8.00098 7.16504C8.24239 7.21306 8.46463 7.33181 8.63867 7.50586C8.76905 7.63628 8.86795 7.79364 8.92969 7.96582L8.97949 8.14258C9.01549 8.32357 9.0102 8.50993 8.96582 8.6875L8.9082 8.8623C8.81401 9.08958 8.65475 9.2842 8.4502 9.4209C8.24563 9.55759 8.00482 9.62982 7.75879 9.62988C7.47002 9.62988 7.19117 9.53004 6.96973 9.34863L6.87891 9.26562C6.64552 9.03224 6.51367 8.7158 6.51367 8.38574C6.51368 8.20132 6.55474 8.01991 6.63281 7.85449L6.72363 7.69434C6.8262 7.54083 6.96114 7.41256 7.11816 7.31836L7.28223 7.23633C7.45287 7.16565 7.63636 7.13362 7.81934 7.14258L8.00098 7.16504ZM13.5693 7.1416C13.8581 7.1416 14.137 7.24146 14.3584 7.42285L14.4492 7.50586C14.6826 7.73924 14.8144 8.05569 14.8145 8.38574C14.8145 8.57015 14.7734 8.75158 14.6953 8.91699L14.6045 9.07715C14.4678 9.28177 14.2732 9.44096 14.0459 9.53516C13.8753 9.60584 13.6918 9.63787 13.5088 9.62891L13.3271 9.60645C13.1462 9.57045 12.9761 9.49464 12.8291 9.38574L12.6895 9.26562C12.5591 9.13519 12.4602 8.97785 12.3984 8.80566L12.3486 8.62891C12.3126 8.44789 12.3179 8.26158 12.3623 8.08398L12.4199 7.90918C12.4906 7.73876 12.5979 7.58681 12.7334 7.46387L12.8779 7.35059C13.0825 7.2139 13.3233 7.14167 13.5693 7.1416Z" fill="#543C52" stroke="#543C52" style="fill:#543C52;fill:color(display-p3 0.3294 0.2353 0.3216);fill-opacity:1;stroke:#543C52;stroke:color(display-p3 0.3294 0.2353 0.3216);stroke-opacity:1;" stroke-width="0.09375"/>
</svg>
