<svg width="21" height="20" viewBox="0 0 21 20" fill="none" xmlns="http://www.w3.org/2000/svg">
<g clip-path="url(#clip0_4891_1156)">
<g clip-path="url(#clip1_4891_1156)">
<path d="M1.97461 9.99996C1.97461 9.99996 4.47461 4.16663 10.3079 4.16663C16.1413 4.16663 18.6413 9.99996 18.6413 9.99996C18.6413 9.99996 16.1413 15.8333 10.3079 15.8333C4.47461 15.8333 1.97461 9.99996 1.97461 9.99996Z" stroke="#543C52" style="stroke:#543C52;stroke:color(display-p3 0.3294 0.2353 0.3216);stroke-opacity:1;" stroke-width="2" stroke-linecap="round" stroke-linejoin="round"/>
<path d="M10.3079 12.5C11.6887 12.5 12.8079 11.3807 12.8079 9.99996C12.8079 8.61925 11.6887 7.49996 10.3079 7.49996C8.92723 7.49996 7.80794 8.61925 7.80794 9.99996C7.80794 11.3807 8.92723 12.5 10.3079 12.5Z" stroke="#543C52" style="stroke:#543C52;stroke:color(display-p3 0.3294 0.2353 0.3216);stroke-opacity:1;" stroke-width="2" stroke-linecap="round" stroke-linejoin="round"/>
</g>
</g>
<defs>
<clipPath id="clip0_4891_1156">
<rect width="20" height="20" fill="white" style="fill:white;fill-opacity:1;" transform="translate(0.308594)"/>
</clipPath>
<clipPath id="clip1_4891_1156">
<rect width="20" height="20" fill="white" style="fill:white;fill-opacity:1;" transform="translate(0.308594)"/>
</clipPath>
</defs>
</svg>
