<svg width="21" height="20" viewBox="0 0 21 20" fill="none" xmlns="http://www.w3.org/2000/svg">
<path d="M2.33008 5.00008C2.33008 4.11603 2.68127 3.26818 3.30639 2.64306C3.93151 2.01794 4.77936 1.66675 5.66341 1.66675H15.6634C16.5475 1.66675 17.3953 2.01794 18.0204 2.64306C18.6456 3.26818 18.9967 4.11603 18.9967 5.00008V15.0001C18.9967 15.8841 18.6456 16.732 18.0204 17.3571C17.3953 17.9822 16.5475 18.3334 15.6634 18.3334H5.66341C4.77936 18.3334 3.93151 17.9822 3.30639 17.3571C2.68127 16.732 2.33008 15.8841 2.33008 15.0001V5.00008Z" stroke="#543C52" style="stroke:#543C52;stroke:color(display-p3 0.3294 0.2353 0.3216);stroke-opacity:1;" stroke-width="1.66667" stroke-linecap="round" stroke-linejoin="round"/>
<path d="M7.7474 9.16667C8.89799 9.16667 9.83073 8.23393 9.83073 7.08333C9.83073 5.93274 8.89799 5 7.7474 5C6.5968 5 5.66406 5.93274 5.66406 7.08333C5.66406 8.23393 6.5968 9.16667 7.7474 9.16667Z" stroke="#543C52" style="stroke:#543C52;stroke:color(display-p3 0.3294 0.2353 0.3216);stroke-opacity:1;" stroke-width="1.66667" stroke-linecap="round" stroke-linejoin="round"/>
<path d="M12.7691 10.5176L5.66406 18.3334H15.7749C16.6296 18.3334 17.4492 17.9939 18.0535 17.3896C18.6579 16.7852 18.9974 15.9656 18.9974 15.1109V15.0001C18.9974 14.6118 18.8516 14.4626 18.5891 14.1751L15.2307 10.5126C15.0742 10.3418 14.8838 10.2056 14.6717 10.1126C14.4596 10.0195 14.2304 9.9717 13.9988 9.97217C13.7672 9.97264 13.5382 10.0214 13.3265 10.1153C13.1147 10.2092 12.9249 10.3462 12.7691 10.5176Z" stroke="#543C52" style="stroke:#543C52;stroke:color(display-p3 0.3294 0.2353 0.3216);stroke-opacity:1;" stroke-width="1.66667" stroke-linecap="round" stroke-linejoin="round"/>
</svg>
