<svg width="21" height="20" viewBox="0 0 21 20" fill="none" xmlns="http://www.w3.org/2000/svg">
<path d="M4.50065 15.8333H5.68815L13.834 7.6875L12.6465 6.5L4.50065 14.6458V15.8333ZM2.83398 17.5V13.9583L13.834 2.97917C14.0007 2.82639 14.1848 2.70833 14.3865 2.625C14.5882 2.54167 14.7998 2.5 15.0215 2.5C15.2432 2.5 15.4584 2.54167 15.6673 2.625C15.8762 2.70833 16.0568 2.83333 16.209 3L17.3548 4.16667C17.5215 4.31944 17.6432 4.5 17.7198 4.70833C17.7965 4.91667 17.8345 5.125 17.834 5.33333C17.834 5.55556 17.7959 5.7675 17.7198 5.96917C17.6437 6.17083 17.522 6.35472 17.3548 6.52083L6.37565 17.5H2.83398ZM13.2298 7.10417L12.6465 6.5L13.834 7.6875L13.2298 7.10417Z" fill="#543C52" style="fill:#543C52;fill:color(display-p3 0.3294 0.2353 0.3216);fill-opacity:1;"/>
</svg>
