<svg width="21" height="21" viewBox="0 0 21 21" fill="none" xmlns="http://www.w3.org/2000/svg">
<path d="M3.24308 7.99798C3.24299 7.27282 3.42315 6.55901 3.76736 5.92075C4.11158 5.28249 4.60904 4.7398 5.21502 4.34149C5.82099 3.94318 6.51647 3.70175 7.2389 3.6389C7.96133 3.57605 8.68806 3.69376 9.35371 3.98144C10.0194 4.26913 10.6031 4.71776 11.0523 5.28699C11.5016 5.85622 11.8023 6.52819 11.9274 7.24247C12.0526 7.95675 11.9982 8.69094 11.7692 9.37899C11.5402 10.067 11.1438 10.6874 10.6156 11.1842C11.6115 11.6677 12.4761 12.3841 13.1363 13.2728C13.7965 14.1615 14.2327 15.1962 14.4081 16.2892C14.4274 16.4109 14.4225 16.5351 14.3938 16.6549C14.365 16.7746 14.313 16.8876 14.2406 16.9872C14.1683 17.0869 14.077 17.1713 13.972 17.2356C13.867 17.3 13.7503 17.3431 13.6287 17.3624C13.5071 17.3816 13.3828 17.3768 13.2631 17.3481C13.1433 17.3193 13.0304 17.2673 12.9307 17.1949C12.8311 17.1225 12.7467 17.0313 12.6823 16.9263C12.6179 16.8213 12.5749 16.7046 12.5556 16.583C12.3681 15.4084 11.768 14.3391 10.863 13.5671C9.95808 12.7951 8.80756 12.3711 7.61808 12.3711C6.42859 12.3711 5.27807 12.7951 4.37312 13.5671C3.46816 14.3391 2.86806 15.4084 2.68058 16.583C2.66121 16.7046 2.61807 16.8212 2.55362 16.9262C2.48918 17.0312 2.40469 17.1224 2.30499 17.1947C2.20528 17.267 2.09231 17.319 1.97252 17.3477C1.85272 17.3763 1.72846 17.3811 1.60683 17.3617C1.48519 17.3424 1.36856 17.2992 1.26359 17.2348C1.15863 17.1703 1.06738 17.0858 0.995071 16.9861C0.922757 16.8864 0.870791 16.7735 0.842138 16.6537C0.813485 16.5339 0.808707 16.4096 0.828077 16.288C1.00279 15.195 1.43882 14.1604 2.0991 13.272C2.75937 12.3837 3.62437 11.6679 4.62058 11.1855C4.18558 10.7763 3.83895 10.2824 3.60205 9.73424C3.36515 9.18605 3.24298 8.59517 3.24308 7.99798ZM14.4931 6.12298C15.2193 6.12348 15.9298 6.3348 16.5383 6.73129C17.1468 7.12777 17.6271 7.69236 17.921 8.35654C18.2148 9.02071 18.3095 9.75589 18.1936 10.4729C18.0777 11.1898 17.7562 11.8577 17.2681 12.3955C18.0294 12.7726 18.7057 13.301 19.2559 13.9483C19.8061 14.5957 20.2186 15.3484 20.4681 16.1605C20.5176 16.3181 20.5246 16.486 20.4883 16.6471C20.452 16.8083 20.3737 16.9569 20.2613 17.078C20.149 17.1992 20.0066 17.2884 19.8486 17.3367C19.6906 17.3849 19.5227 17.3906 19.3618 17.353C19.201 17.3158 19.0529 17.2368 18.9324 17.124C18.8118 17.0111 18.7233 16.8685 18.6756 16.7105C18.4512 15.9859 18.0429 15.3319 17.4903 14.8122C16.9378 14.2926 16.26 13.925 15.5231 13.7455C15.3184 13.6961 15.1363 13.5792 15.0061 13.4136C14.876 13.2481 14.8053 13.0436 14.8056 12.833V12.393C14.8055 12.2184 14.8541 12.0473 14.946 11.8989C15.0378 11.7505 15.1693 11.6307 15.3256 11.553C15.7045 11.3652 16.0089 11.0548 16.1891 10.6722C16.3694 10.2896 16.415 9.85726 16.3186 9.44546C16.2222 9.03366 15.9893 8.66656 15.6579 8.40379C15.3265 8.14101 14.916 7.998 14.4931 7.99798C14.2444 7.99798 14.006 7.8992 13.8302 7.72339C13.6543 7.54757 13.5556 7.30912 13.5556 7.06048C13.5556 6.81184 13.6543 6.57338 13.8302 6.39756C14.006 6.22175 14.2444 6.12298 14.4931 6.12298ZM7.61808 5.49798C7.28515 5.49045 6.95408 5.54951 6.6443 5.67169C6.33451 5.79387 6.05226 5.97671 5.81411 6.20948C5.57596 6.44225 5.38672 6.72025 5.25749 7.02716C5.12825 7.33407 5.06164 7.6637 5.06156 7.99671C5.06147 8.32972 5.12792 8.65939 5.257 8.96637C5.38608 9.27334 5.57518 9.55143 5.81322 9.78432C6.05125 10.0172 6.33341 10.2002 6.64313 10.3225C6.95286 10.4449 7.2839 10.5041 7.61683 10.4967C8.27003 10.4823 8.89162 10.2127 9.34854 9.74568C9.80546 9.27866 10.0614 8.65132 10.0616 7.99796C10.0617 7.3446 9.8061 6.71714 9.34941 6.24989C8.89273 5.78264 8.27127 5.51275 7.61808 5.49798Z" fill="#81818D" style="fill:#81818D;fill:color(display-p3 0.5059 0.5059 0.5529);fill-opacity:1;"/>
</svg>
