<svg width="16" height="16" viewBox="0 0 16 16" fill="none" xmlns="http://www.w3.org/2000/svg">
<path d="M14.2988 9.0801H8.89016V14.4887C8.89016 14.7756 8.77619 15.0508 8.57333 15.2536C8.37047 15.4565 8.09532 15.5705 7.80843 15.5705C7.52154 15.5705 7.2464 15.4565 7.04353 15.2536C6.84067 15.0508 6.7267 14.7756 6.7267 14.4887V9.0801H1.31806C1.03116 9.0801 0.756023 8.96613 0.553159 8.76327C0.350296 8.56041 0.236328 8.28527 0.236328 7.99837C0.236328 7.71148 0.350296 7.43634 0.553159 7.23348C0.756023 7.03061 1.03116 6.91664 1.31806 6.91664H6.7267V1.508C6.7267 1.22111 6.84067 0.945964 7.04353 0.7431C7.2464 0.540237 7.52154 0.42627 7.80843 0.42627C8.09532 0.42627 8.37047 0.540237 8.57333 0.7431C8.77619 0.945964 8.89016 1.22111 8.89016 1.508V6.91664H14.2988C14.5857 6.91664 14.8608 7.03061 15.0637 7.23348C15.2666 7.43634 15.3805 7.71148 15.3805 7.99837C15.3805 8.28527 15.2666 8.56041 15.0637 8.76327C14.8608 8.96613 14.5857 9.0801 14.2988 9.0801Z" fill="#543C52" style="fill:#543C52;fill:color(display-p3 0.3294 0.2353 0.3216);fill-opacity:1;"/>
</svg>
