<svg width="41" height="41" viewBox="0 0 41 41" fill="none" xmlns="http://www.w3.org/2000/svg">
<rect x="0.808594" y="1" width="39" height="39" rx="19.5" fill="white" style="fill:white;fill-opacity:1;"/>
<rect x="0.808594" y="1" width="39" height="39" rx="19.5" stroke="#543C52" style="stroke:#543C52;stroke:color(display-p3 0.3294 0.2353 0.3216);stroke-opacity:1;"/>
<path d="M26.7988 21.5801H21.3902V26.9887C21.3902 27.2756 21.2762 27.5508 21.0733 27.7536C20.8705 27.9565 20.5953 28.0705 20.3084 28.0705C20.0215 28.0705 19.7464 27.9565 19.5435 27.7536C19.3407 27.5508 19.2267 27.2756 19.2267 26.9887V21.5801H13.8181C13.5312 21.5801 13.256 21.4661 13.0532 21.2633C12.8503 21.0604 12.7363 20.7853 12.7363 20.4984C12.7363 20.2115 12.8503 19.9363 13.0532 19.7335C13.256 19.5306 13.5312 19.4166 13.8181 19.4166H19.2267V14.008C19.2267 13.7211 19.3407 13.446 19.5435 13.2431C19.7464 13.0402 20.0215 12.9263 20.3084 12.9263C20.5953 12.9263 20.8705 13.0402 21.0733 13.2431C21.2762 13.446 21.3902 13.7211 21.3902 14.008V19.4166H26.7988C27.0857 19.4166 27.3608 19.5306 27.5637 19.7335C27.7666 19.9363 27.8805 20.2115 27.8805 20.4984C27.8805 20.7853 27.7666 21.0604 27.5637 21.2633C27.3608 21.4661 27.0857 21.5801 26.7988 21.5801Z" fill="#543C52" style="fill:#543C52;fill:color(display-p3 0.3294 0.2353 0.3216);fill-opacity:1;"/>
</svg>
