<svg width="15" height="16" viewBox="0 0 15 16" fill="none" xmlns="http://www.w3.org/2000/svg">
<path d="M5.58073 11.3333C4.06684 11.3333 2.78573 10.8089 1.7374 9.76C0.689063 8.71111 0.164618 7.43 0.164063 5.91667C0.163507 4.40333 0.687952 3.12222 1.7374 2.07333C2.78684 1.02444 4.06795 0.5 5.58073 0.5C7.09351 0.5 8.3749 1.02444 9.4249 2.07333C10.4749 3.12222 10.9991 4.40333 10.9974 5.91667C10.9974 6.52778 10.9002 7.10417 10.7057 7.64583C10.5113 8.1875 10.2474 8.66667 9.91406 9.08333L14.5807 13.75C14.7335 13.9028 14.8099 14.0972 14.8099 14.3333C14.8099 14.5694 14.7335 14.7639 14.5807 14.9167C14.428 15.0694 14.2335 15.1458 13.9974 15.1458C13.7613 15.1458 13.5668 15.0694 13.4141 14.9167L8.7474 10.25C8.33073 10.5833 7.85156 10.8472 7.3099 11.0417C6.76823 11.2361 6.19184 11.3333 5.58073 11.3333ZM5.58073 9.66667C6.6224 9.66667 7.50795 9.30222 8.2374 8.57333C8.96684 7.84444 9.33129 6.95889 9.33073 5.91667C9.33017 4.87444 8.96573 3.98917 8.2374 3.26083C7.50906 2.5325 6.62351 2.16778 5.58073 2.16667C4.53795 2.16556 3.65267 2.53028 2.9249 3.26083C2.19712 3.99139 1.8324 4.87667 1.83073 5.91667C1.82906 6.95667 2.19379 7.84222 2.9249 8.57333C3.65601 9.30444 4.54129 9.66889 5.58073 9.66667Z" fill="#81818D" style="fill:#81818D;fill:color(display-p3 0.5059 0.5059 0.5529);fill-opacity:1;"/>
</svg>
