<svg width="25" height="24" viewBox="0 0 25 24" fill="none" xmlns="http://www.w3.org/2000/svg">
<rect x="1.19238" y="1" width="22" height="22" rx="11" fill="white" style="fill:white;fill-opacity:1;"/>
<rect x="1.19238" y="1" width="22" height="22" rx="11" stroke="#543C52" style="stroke:#543C52;stroke:color(display-p3 0.3294 0.2353 0.3216);stroke-opacity:1;" stroke-width="2"/>
<path d="M17.0605 12.8101H13.004V16.8666C13.004 17.0817 12.9186 17.2881 12.7664 17.4402C12.6143 17.5924 12.4079 17.6779 12.1927 17.6779C11.9776 17.6779 11.7712 17.5924 11.6191 17.4402C11.4669 17.2881 11.3815 17.0817 11.3815 16.8666V12.8101H7.32497C7.1098 12.8101 6.90344 12.7246 6.7513 12.5725C6.59915 12.4203 6.51367 12.2139 6.51367 11.9988C6.51367 11.7836 6.59915 11.5773 6.7513 11.4251C6.90344 11.273 7.1098 11.1875 7.32497 11.1875H11.3815V7.131C11.3815 6.91583 11.4669 6.70947 11.6191 6.55733C11.7712 6.40518 11.9776 6.3197 12.1927 6.3197C12.4079 6.3197 12.6143 6.40518 12.7664 6.55733C12.9186 6.70947 13.004 6.91583 13.004 7.131V11.1875H17.0605C17.2757 11.1875 17.4821 11.273 17.6342 11.4251C17.7864 11.5773 17.8718 11.7836 17.8718 11.9988C17.8718 12.2139 17.7864 12.4203 17.6342 12.5725C17.4821 12.7246 17.2757 12.8101 17.0605 12.8101Z" fill="#543C52" style="fill:#543C52;fill:color(display-p3 0.3294 0.2353 0.3216);fill-opacity:1;"/>
</svg>
